<?xml version="1.0" standalone="no"?>
<!DOCTYPE svg PUBLIC "-//W3C//DTD SVG 20010904//EN"
 "http://www.w3.org/TR/2001/REC-SVG-20010904/DTD/svg10.dtd">
<svg version="1.0" xmlns="http://www.w3.org/2000/svg"
 width="300.000000pt" height="300.000000pt" viewBox="0 0 300.000000 300.000000"
 preserveAspectRatio="xMidYMid meet">
<metadata>
Created by potrace 1.10, written by Peter Selinger 2001-2011
</metadata>
<g transform="translate(0.000000,300.000000) scale(0.100000,-0.100000)"
fill="#000000" stroke="none">
<path d="M1315 2823 c-16 -2 -75 -13 -129 -24 -532 -110 -947 -539 -1040
-1075 -20 -113 -20 -331 -1 -451 82 -507 476 -936 975 -1062 252 -64 532 -51
770 34 427 154 746 513 846 954 13 58 23 129 22 156 -1 39 -2 42 -5 15 -51
-478 -347 -883 -782 -1071 -342 -147 -741 -137 -1074 27 -129 64 -219 126
-327 231 -262 251 -394 561 -394 923 0 363 133 674 398 928 189 182 431 299
696 338 390 57 791 -77 1071 -356 170 -171 259 -328 345 -612 5 -15 -1 -18
-39 -18 -24 0 -46 -2 -49 -5 -3 -3 33 -57 80 -120 l85 -115 28 68 c15 37 38
93 53 126 14 32 26 62 26 66 0 4 -19 4 -42 -1 -24 -4 -46 -4 -49 -1 -3 4 -11
32 -19 62 -19 79 -79 225 -129 312 -133 232 -339 424 -586 543 -129 63 -243
98 -388 119 -95 15 -265 19 -342 9z m1452 -1070 c33 -31 34 -34 24 -65 -18
-51 -35 -78 -46 -70 -6 4 -25 27 -43 51 l-32 45 25 26 c14 15 26 39 26 56 1
20 3 23 6 9 2 -11 20 -35 40 -52z"/>
</g>
</svg>
