<?xml version="1.0" standalone="no"?>
<!DOCTYPE svg PUBLIC "-//W3C//DTD SVG 20010904//EN"
 "http://www.w3.org/TR/2001/REC-SVG-20010904/DTD/svg10.dtd">
<svg version="1.0" xmlns="http://www.w3.org/2000/svg"
 width="300.000000pt" height="300.000000pt" viewBox="0 0 300.000000 300.000000"
 preserveAspectRatio="xMidYMid meet">
<metadata>
Created by potrace 1.10, written by Peter Selinger 2001-2011
</metadata>
<g transform="translate(0.000000,300.000000) scale(0.100000,-0.100000)"
fill="#000000" stroke="none">
<path d="M1361 2820 c-415 -58 -786 -308 -992 -668 -50 -87 -110 -233 -129
-312 -8 -30 -16 -58 -19 -62 -3 -3 -25 -3 -49 1 -23 5 -42 5 -42 1 0 -4 12
-34 26 -66 15 -33 38 -89 53 -126 l28 -68 85 115 c47 63 83 117 80 120 -3 3
-25 5 -49 5 -24 0 -43 2 -43 4 0 25 78 232 113 302 243 481 775 758 1307 680
544 -80 970 -489 1077 -1034 23 -117 23 -347 0 -464 -80 -406 -347 -753 -712
-927 -335 -159 -728 -167 -1066 -22 -438 189 -721 579 -782 1076 -3 18 -5 10
-5 -20 -1 -27 9 -98 22 -156 115 -506 510 -893 1026 -1005 119 -26 400 -26
518 -1 146 32 284 84 397 150 345 199 588 548 650 930 19 120 19 338 -1 451
-93 531 -490 947 -1024 1073 -118 27 -354 39 -469 23z m-1055 -1081 l24 -25
-32 -45 c-39 -53 -51 -62 -60 -46 -18 33 -47 117 -39 114 17 -4 71 44 72 66 2
15 3 13 6 -8 3 -16 15 -41 29 -56z"/>
</g>
</svg>
